<svg width="149" height="157" viewBox="0 0 149 157" fill="none" xmlns="http://www.w3.org/2000/svg">
<path d="M89.28 148.8V141.36H104.16V133.92H96.72V126.48H104.16V119.04H96.72V89.28H104.16V81.84H111.6V74.4H119.04V29.76H111.6V22.32H104.16V14.88H89.28V7.44H59.52V14.88H44.64V22.32H37.2V29.76H29.76V74.4H37.2V81.84H44.64V89.28H52.08V119.04H44.64V126.48H52.08V133.92H44.64V141.36H59.52V148.8ZM0 156.24V0H148.8V156.24ZM81.84 81.84H66.96V111.6H59.52V81.84H52.08V74.4H59.52V66.96H66.96V74.4H81.84V66.96H89.28V74.4H96.72V81.84H89.28V111.6H81.84Z" fill="#1C105D" fill-rule="evenodd"/>
<path d="M96.72 111.6V119.04H52.08V111.6ZM96.72 126.48V133.92H52.08V126.48ZM89.28 141.36V148.8H59.52V141.36Z" fill="#80B0FF" fill-rule="evenodd"/>
<path d="M104.16 119.04V126.48H44.64V119.04ZM104.16 133.92V141.36H44.64V133.92Z" fill="#988ADF" fill-rule="evenodd"/>
<path d="M119.04 74.4H111.6V81.84H104.16V89.28H96.72V111.6H89.28V81.84H96.72V74.4H89.28V66.96H81.84V74.4H66.96V66.96H59.52V74.4H52.08V81.84H59.52V111.6H52.08V89.28H44.64V81.84H37.2V74.4H29.76V29.76H37.2V22.32H44.64V14.88H59.52V7.44H89.28V14.88H104.16V22.32H111.6V29.76H119.04ZM66.96 81.84H81.84V111.6H66.96Z" fill="white" fill-rule="evenodd"/>
</svg>
