<svg width="1137" height="202" viewBox="0 0 1137 202" fill="none" xmlns="http://www.w3.org/2000/svg">
<path d="M306.56 150.77L348.51 32H376.31L418.49 150.77H429.81V168.44H376.78V150.77H395.4L386.67 124.38H336.95L327.99 150.77H347.25V168.44H295V150.77H306.55H306.56ZM381.49 108.82L361.71 49.91L342.14 108.82H381.5H381.49Z" fill="black"/>
<path d="M488.24 170.56C470.8 170.56 453.83 167.73 439.92 161.37V135.92H458.53V150.29C466.32 153.83 475.51 155.48 487.52 155.48C506.13 155.48 516.03 150.06 516.03 140.16C516.03 133.09 510.85 129.55 498.59 127.67L472.44 124.13C450.3 121.07 439.68 111.64 439.68 95.62C439.68 76.53 458.77 63.81 489.17 63.81C504.71 63.81 519.33 65.94 533.71 71.12V92.75H515.1V83.14C508.27 80.78 498.6 79.13 488.95 79.13C471.97 79.13 462.55 84.31 462.55 93.27C462.55 100.11 467.73 104.35 479.28 106L506.62 109.77C528.76 113.07 539.38 122.26 539.38 137.81C539.38 157.6 519.58 170.57 488.24 170.57V170.56Z" fill="black"/>
<path d="M621.51 152.42C629.51 152.42 638.47 151.24 655.92 145.35L660.85 162.08C641.07 169.15 628.8 170.8 617.73 170.8C590.39 170.8 577.43 159.02 577.43 138.28V83.61H542.54V66.41H577.43V36.95H599.34V66.41H655.2V83.61H599.34V134.98C599.34 146.29 606.17 152.42 621.5 152.42H621.51Z" fill="black"/>
<path d="M770.15 117.54C770.15 86.43 794.65 64.28 826.47 64.28C858.29 64.28 882.81 86.43 882.81 117.54C882.81 148.65 858.29 170.8 826.47 170.8C794.65 170.8 770.15 148.65 770.15 117.54ZM861.35 117.54C861.35 97.27 846.27 82.66 826.46 82.66C806.65 82.66 791.59 97.27 791.59 117.54C791.59 137.81 806.67 152.42 826.46 152.42C846.25 152.42 861.35 137.81 861.35 117.54Z" fill="black"/>
<path d="M736.15 96.09C744.17 87.14 750.52 84.08 760.19 84.08C763.48 84.08 767.2 84.79 772.14 86.38C775.37 80 779.47 74.2 784.52 69.23C776.54 65.97 769.37 64.04 762.54 64.04C749.11 64.04 739.44 70.4 730.73 85.24L720.35 101.26V66.39H666.16V83.58H698.44V151.22H666.16V168.42H754.29V151.22H720.35V113.51L736.14 96.07L736.15 96.09Z" fill="black"/>
<path d="M1088.73 151.18V51.3H1064.18V33.84H1136.1V51.3H1111.32V151.18H1136.1V168.64H1064.18V151.18H1088.73Z" fill="black"/>
<path d="M931.35 150.77L973.3 32H1001.1L1043.28 150.77H1054.6V168.44H1001.57V150.77H1020.19L1011.46 124.38H961.74L952.78 150.77H972.04V168.44H919.79V150.77H931.34H931.35ZM1006.28 108.82L986.5 49.91L966.93 108.82H1006.29H1006.28Z" fill="black"/>
<path d="M20.6273 3.47349C21.2094 1.42565 23.1658 -0.0397221 25.2643 0.000820906L223.119 3.85811C224.45 3.88404 225.64 4.51777 226.347 5.57695C227.053 6.63617 227.195 8.00172 226.732 9.27834L158.08 198.833C157.349 200.85 155.295 202.18 153.216 201.98C151.137 201.78 149.638 200.111 149.663 198.027L150.787 105.442L150.623 105.639L148.286 68.0117C147.903 61.8542 144.21 56.6455 138.589 54.3319L108.251 41.844L108.305 41.826L22.9061 8.30737C21.0075 7.56215 20.0456 5.52167 20.6273 3.47349Z" fill="url(#paint0_linear_317_5)"/>
<path d="M0.0123279 81.2806C-0.146831 79.1878 1.25023 77.1519 3.32752 76.4481L107.009 41.3323L138.589 54.3319C144.21 56.6455 147.902 61.853 148.285 68.0105L150.666 106.313L150.525 106.561L150.53 106.116L80.0526 191.386C78.6431 193.091 76.2853 193.66 74.4498 192.737C72.6145 191.813 71.8251 189.663 72.574 187.626L104.579 100.622C107.186 93.5348 102.503 86.4982 95.1014 86.3823L3.97497 84.9552C1.84164 84.9217 0.171803 83.3733 0.0123279 81.2806Z" fill="url(#paint1_linear_317_5)"/>
<defs>
<linearGradient id="paint0_linear_317_5" x1="140.287" y1="222.172" x2="97.5135" y2="116.921" gradientUnits="userSpaceOnUse">
<stop stop-color="#6D5BD0"/>
<stop offset="1" stop-color="#A1D1A8"/>
</linearGradient>
<linearGradient id="paint1_linear_317_5" x1="134.829" y1="111.588" x2="55.2685" y2="108.108" gradientUnits="userSpaceOnUse">
<stop stop-color="#6D5BD0"/>
<stop offset="1" stop-color="#A1D1A8"/>
</linearGradient>
</defs>
</svg>
